<svg xmlns="http://www.w3.org/2000/svg" version="1.1"
     width="2000" height="1078" viewBox="0 0 2000 1078">
    <g transform="matrix(1,0,0,1,-0.9953566419560502,0)">
        <svg viewBox="0 0 371 200" data-background-color="#ffffff" preserveAspectRatio="xMidYMid meet" height="1078"
             width="2000" xmlns="http://www.w3.org/2000/svg">
            <g id="tight-bounds" transform="matrix(1,0,0,1,0.18463865708284288,0)">
                <svg viewBox="0 0 370.6307226858343 200" height="200" width="370.6307226858343">
                    <g>
                        <svg viewBox="0 0 395.52 213.4307685740683" height="200" width="370.6307226858343">
                            <g>
                                <svg viewBox="0 0 395.52 213.4307685740683" height="213.4307685740683" width="395.52">
                                    <g id="textblocktransform">
                                        <svg viewBox="0 0 395.52 213.4307685740683" height="213.4307685740683"
                                             width="395.52" id="textblock">
                                            <g>
                                                <svg viewBox="0 0 395.52 147.2520457433291" height="147.2520457433291"
                                                     width="395.52">
                                                    <g transform="matrix(1,0,0,1,0,0)">
                                                        <svg width="395.52"
                                                             viewBox="1.7 -37.25 118.05 43.95000000000001"
                                                             height="147.2520457433291" data-palette-color="#223c84">
                                                            <path d="M37.2-1.85L30.75 3.55Q29 5.05 25.85 5.88 22.7 6.7 17.75 6.7L17.75 6.7Q12.85 6.7 9.73 5.68 6.6 4.65 4.83 2.95 3.05 1.25 2.38-0.95 1.7-3.15 1.7-5.5L1.7-5.5 1.7-21.05Q1.7-23.35 2.35-25.33 3-27.3 4.7-28.7L4.7-28.7 11.2-34.1Q12.95-35.6 16.07-36.43 19.2-37.25 24.2-37.25L24.2-37.25Q29.1-37.25 32.23-36.45 35.35-35.65 37.13-34.23 38.9-32.8 39.55-30.83 40.2-28.85 40.2-26.5L40.2-26.5 40.2-9.45Q40.2-7.15 39.55-5.2 38.9-3.25 37.2-1.85L37.2-1.85ZM39.7-9.45L39.7-9.45 39.7-26.5Q39.7-28.8 39.03-30.68 38.35-32.55 36.63-33.9 34.9-35.25 31.88-36 28.85-36.75 24.2-36.75L24.2-36.75Q19.55-36.75 16.5-36 13.45-35.25 11.73-33.9 10-32.55 9.33-30.68 8.65-28.8 8.65-26.5L8.65-26.5 8.65-9.45Q8.65-7.15 9.33-5.28 10-3.4 11.73-2.08 13.45-0.75 16.5 0 19.55 0.75 24.2 0.75L24.2 0.75Q28.85 0.75 31.88 0 34.9-0.75 36.63-2.08 38.35-3.4 39.03-5.28 39.7-7.15 39.7-9.45ZM34.25-25.35L34.25-10.6Q34.25-7.6 32.1-5.73 29.95-3.85 24.1-3.85L24.1-3.85Q18.25-3.85 16.15-5.73 14.05-7.6 14.05-10.6L14.05-10.6 14.05-25.35Q14.05-28.35 16.15-30.23 18.25-32.1 24.1-32.1L24.1-32.1Q29.95-32.1 32.1-30.23 34.25-28.35 34.25-25.35L34.25-25.35ZM14.55-25.35L14.55-10.6Q14.55-7.8 16.55-6.08 18.55-4.35 24.1-4.35L24.1-4.35Q29.65-4.35 31.7-6.08 33.75-7.8 33.75-10.6L33.75-10.6 33.75-25.35Q33.75-28.15 31.7-29.88 29.65-31.6 24.1-31.6L24.1-31.6Q18.55-31.6 16.55-29.88 14.55-28.15 14.55-25.35L14.55-25.35ZM20-11.25L20-11.25 20-24.7Q20-25.65 20.75-26.33 21.5-27 24.2-27L24.2-27Q26.9-27 27.65-26.33 28.4-25.65 28.4-24.7L28.4-24.7 28.4-11.25Q28.4-10.25 27.65-9.58 26.9-8.9 24.2-8.9L24.2-8.9Q21.5-8.9 20.75-9.58 20-10.25 20-11.25ZM20.5-20.7L20.5-11.25Q20.5-10.75 20.7-10.38 20.9-10 21.45-9.75L21.45-9.75 21.45-19.25Q21.45-19.75 21.25-20.13 21.05-20.5 20.5-20.7L20.5-20.7ZM59.8 6.7L59.8 6.7Q54.95 6.7 51.82 5.68 48.7 4.65 46.95 2.95 45.2 1.25 44.52-0.95 43.85-3.15 43.85-5.5L43.85-5.5 43.85-28.75Q43.85-29.4 44.02-29.85 44.2-30.3 44.55-30.6L44.55-30.6 51-36.05Q51.25-36.25 51.67-36.38 52.1-36.5 52.6-36.5L52.6-36.5 60.45-36.5Q61.65-36.5 62.2-35.95 62.75-35.4 62.75-34.2L62.75-34.2 62.75-11.4Q62.75-10.95 62.9-10.58 63.05-10.2 63.55-10L63.55-10 63.55-28.75Q63.55-29.4 63.7-29.85 63.85-30.3 64.15-30.55L64.15-30.55 64.2-30.6 70.7-36.05Q70.95-36.25 71.35-36.38 71.75-36.5 72.3-36.5L72.3-36.5 79.9-36.5Q81.1-36.5 81.65-35.95 82.2-35.4 82.2-34.2L82.2-34.2 82.2-9.45Q82.2-7.15 81.55-5.2 80.9-3.25 79.2-1.85L79.2-1.85 72.7 3.55Q70.95 5.05 67.85 5.88 64.75 6.7 59.8 6.7ZM81.7-9.45L81.7-9.45 81.7-34.2Q81.7-35.15 81.27-35.58 80.85-36 79.9-36L79.9-36 72.3-36Q71.35-36 70.92-35.58 70.5-35.15 70.5-34.2L70.5-34.2 70.5-11.4Q70.5-10.4 69.75-9.73 69-9.05 66.35-9.05L66.35-9.05Q63.75-9.05 63-9.73 62.25-10.4 62.25-11.4L62.25-11.4 62.25-34.2Q62.25-35.15 61.82-35.58 61.4-36 60.45-36L60.45-36 52.6-36Q51.65-36 51.22-35.58 50.8-35.15 50.8-34.2L50.8-34.2 50.8-9.45Q50.8-7.15 51.47-5.28 52.15-3.4 53.87-2.08 55.6-0.75 58.6 0 61.6 0.75 66.25 0.75L66.25 0.75Q70.9 0.75 73.9 0 76.9-0.75 78.62-2.08 80.35-3.4 81.02-5.28 81.7-7.15 81.7-9.45ZM56.3-10.65L56.3-31.5 56.8-31.5 56.8-10.65Q56.8-7.85 58.77-6.13 60.75-4.4 66.3-4.4L66.3-4.4Q71.85-4.4 73.85-6.13 75.85-7.85 75.85-10.65L75.85-10.65 75.85-31.5 76.35-31.5 76.35-10.65Q76.35-7.65 74.25-5.78 72.15-3.9 66.3-3.9L66.3-3.9Q60.45-3.9 58.37-5.78 56.3-7.65 56.3-10.65L56.3-10.65ZM96.45 5.95L96.45 5.95 88.7 5.95Q87.5 5.95 86.95 5.4 86.4 4.85 86.4 3.65L86.4 3.65 86.4-28.75Q86.4-29.4 86.57-29.85 86.75-30.3 87.1-30.6L87.1-30.6 93.55-36.05Q93.8-36.25 94.22-36.38 94.65-36.5 95.15-36.5L95.15-36.5 117.45-36.5Q118.65-36.5 119.2-35.95 119.75-35.4 119.75-34.2L119.75-34.2 119.75-28.25Q119.75-27.6 119.57-27.15 119.4-26.7 119.05-26.4L119.05-26.4 113.45-21.75Q114.6-21.75 115.15-21.2 115.7-20.65 115.7-19.45L115.7-19.45 115.7-13.45Q115.7-12.8 115.52-12.35 115.35-11.9 115-11.6L115-11.6 108.5-6.2Q108.3-6 107.87-5.85 107.45-5.7 106.95-5.7L106.95-5.7 105.2-5.7 105.2-1.8Q105.2-1.15 105.02-0.7 104.85-0.25 104.5 0.05L104.5 0.05 98 5.45Q97.8 5.65 97.37 5.8 96.95 5.95 96.45 5.95ZM95.15 0L102.9 0Q103.85 0 104.27-0.43 104.7-0.85 104.7-1.8L104.7-1.8 104.7-11.65 113.4-11.65Q114.35-11.65 114.77-12.08 115.2-12.5 115.2-13.45L115.2-13.45 115.2-19.45Q115.2-20.4 114.77-20.83 114.35-21.25 113.4-21.25L113.4-21.25 104.7-21.25 104.7-26.45 117.45-26.45Q118.4-26.45 118.82-26.88 119.25-27.3 119.25-28.25L119.25-28.25 119.25-34.2Q119.25-35.15 118.82-35.58 118.4-36 117.45-36L117.45-36 95.15-36Q94.2-36 93.77-35.58 93.35-35.15 93.35-34.2L93.35-34.2 93.35-1.8Q93.35-0.85 93.77-0.43 94.2 0 95.15 0L95.15 0ZM99.3-4.5L98.8-4.5 98.8-31.5 114.75-31.5 114.75-31 99.3-31 99.3-16.7 110.7-16.7 110.7-16.2 99.3-16.2 99.3-4.5Z"
                                                                  opacity="1" transform="matrix(1,0,0,1,0,0)"
                                                                  fill="#ffffff" class="wordmark-text-0"
                                                                  data-fill-palette-color="primary" id="text-0"></path>
                                                        </svg>
                                                    </g>
                                                </svg>
                                            </g>
                                            <g transform="matrix(1,0,0,1,0,182.01471969423125)">
                                                <svg viewBox="0 0 395.52 31.41604887983706" height="31.41604887983706"
                                                     width="395.52">
                                                    <g transform="matrix(1,0,0,1,0,0)">
                                                        <svg width="395.52"
                                                             viewBox="3.2 -36.65 466.40000000000003 37.05"
                                                             height="31.41604887983706" data-palette-color="#223c84">
                                                            <path d="M13.95 0.3L13.95 0.3Q10.9 0.3 8.47-0.78 6.05-1.85 4.63-4.23 3.2-6.6 3.2-10.6L3.2-10.6 3.2-25.65Q3.2-29.65 4.63-32.02 6.05-34.4 8.47-35.48 10.9-36.55 13.95-36.55L13.95-36.55Q17-36.55 19.45-35.48 21.9-34.4 23.33-32.02 24.75-29.65 24.75-25.65L24.75-25.65 24.75-10.6Q24.75-6.6 23.33-4.23 21.9-1.85 19.45-0.78 17 0.3 13.95 0.3ZM13.95-3.5L13.95-3.5Q17.05-3.5 18.8-5.23 20.55-6.95 20.55-10.6L20.55-10.6 20.55-25.65Q20.55-29.3 18.8-31.03 17.05-32.75 13.95-32.75L13.95-32.75Q10.85-32.75 9.13-31.03 7.4-29.3 7.4-25.65L7.4-25.65 7.4-10.6Q7.4-6.95 9.13-5.23 10.85-3.5 13.95-3.5ZM42.25 0.3L42.25 0.3Q39.15 0.3 36.7-0.78 34.25-1.85 32.8-4.23 31.35-6.6 31.35-10.6L31.35-10.6 31.35-35.1Q31.35-35.85 31.97-36.2 32.6-36.55 33.45-36.55L33.45-36.55Q34.25-36.55 34.9-36.2 35.55-35.85 35.55-35.1L35.55-35.1 35.55-10.6Q35.55-6.95 37.3-5.23 39.05-3.5 42.25-3.5L42.25-3.5Q45.4-3.5 47.17-5.23 48.95-6.95 48.95-10.6L48.95-10.6 48.95-35.1Q48.95-35.85 49.6-36.2 50.25-36.55 51.05-36.55L51.05-36.55Q51.85-36.55 52.5-36.2 53.15-35.85 53.15-35.1L53.15-35.1 53.15-10.6Q53.15-6.6 51.7-4.23 50.25-1.85 47.77-0.78 45.3 0.3 42.25 0.3ZM78 0L62 0Q61.3 0 60.7-0.38 60.09-0.75 60.09-1.5L60.09-1.5 60.09-35.1Q60.09-35.85 60.77-36.2 61.45-36.55 62.2-36.55L62.2-36.55Q63-36.55 63.65-36.2 64.3-35.85 64.3-35.1L64.3-35.1 64.3-3.8 78-3.8Q78.7-3.8 79.02-3.23 79.34-2.65 79.34-1.9L79.34-1.9Q79.34-1.2 79.02-0.6 78.7 0 78 0L78 0ZM93.19 0.3L93.19 0.3Q90.09 0.3 87.64-0.78 85.19-1.85 83.74-4.23 82.29-6.6 82.29-10.6L82.29-10.6 82.29-35.1Q82.29-35.85 82.92-36.2 83.54-36.55 84.39-36.55L84.39-36.55Q85.19-36.55 85.84-36.2 86.49-35.85 86.49-35.1L86.49-35.1 86.49-10.6Q86.49-6.95 88.24-5.23 89.99-3.5 93.19-3.5L93.19-3.5Q96.34-3.5 98.12-5.23 99.89-6.95 99.89-10.6L99.89-10.6 99.89-35.1Q99.89-35.85 100.54-36.2 101.19-36.55 101.99-36.55L101.99-36.55Q102.79-36.55 103.44-36.2 104.09-35.85 104.09-35.1L104.09-35.1 104.09-10.6Q104.09-6.6 102.64-4.23 101.19-1.85 98.72-0.78 96.24 0.3 93.19 0.3ZM131.79 0.3L131.79 0.3Q128.69 0.3 126.24-0.78 123.79-1.85 122.34-4.23 120.89-6.6 120.89-10.6L120.89-10.6 120.89-35.1Q120.89-35.85 121.51-36.2 122.14-36.55 122.99-36.55L122.99-36.55Q123.79-36.55 124.44-36.2 125.09-35.85 125.09-35.1L125.09-35.1 125.09-10.6Q125.09-6.95 126.84-5.23 128.59-3.5 131.79-3.5L131.79-3.5Q134.94-3.5 136.71-5.23 138.49-6.95 138.49-10.6L138.49-10.6 138.49-35.1Q138.49-35.85 139.14-36.2 139.79-36.55 140.59-36.55L140.59-36.55Q141.39-36.55 142.04-36.2 142.69-35.85 142.69-35.1L142.69-35.1 142.69-10.6Q142.69-6.6 141.24-4.23 139.79-1.85 137.31-0.78 134.84 0.3 131.79 0.3ZM151.74 0L151.74 0Q150.99 0 150.31-0.38 149.64-0.75 149.64-1.5L149.64-1.5 149.64-35.1Q149.64-35.9 150.31-36.23 150.99-36.55 151.74-36.55L151.74-36.55Q152.53-36.55 153.09-36.25 153.64-35.95 154.09-35.38 154.53-34.8 154.99-33.9L154.99-33.9 167.39-9.55 167.39-35.1Q167.39-35.85 168.06-36.2 168.74-36.55 169.49-36.55L169.49-36.55Q170.29-36.55 170.94-36.2 171.59-35.85 171.59-35.1L171.59-35.1 171.59-1.5Q171.59-0.75 170.94-0.38 170.29 0 169.49 0L169.49 0Q168.69 0 168.01-0.55 167.34-1.1 166.89-1.9L166.89-1.9 153.84-27.05 153.84-1.5Q153.84-0.75 153.19-0.38 152.53 0 151.74 0ZM180.83 0L180.83 0Q180.08 0 179.41-0.38 178.73-0.75 178.73-1.5L178.73-1.5 178.73-35.1Q178.73-35.85 179.41-36.2 180.08-36.55 180.83-36.55L180.83-36.55Q181.63-36.55 182.28-36.2 182.93-35.85 182.93-35.1L182.93-35.1 182.93-1.5Q182.93-0.75 182.28-0.38 181.63 0 180.83 0ZM200.23 0.3L200.23 0.3Q199.38 0.3 198.63-0.08 197.88-0.45 197.63-1.15L197.63-1.15 187.38-34.4Q187.33-34.6 187.33-34.8L187.33-34.8Q187.33-35.3 187.73-35.7 188.13-36.1 188.73-36.33 189.33-36.55 189.88-36.55L189.88-36.55Q190.43-36.55 190.85-36.33 191.28-36.1 191.43-35.6L191.43-35.6 200.23-5.9 208.98-35.6Q209.13-36.1 209.53-36.33 209.93-36.55 210.48-36.55L210.48-36.55Q211.08-36.55 211.68-36.3 212.28-36.05 212.68-35.68 213.08-35.3 213.08-34.75L213.08-34.75Q213.08-34.7 213.06-34.6 213.03-34.5 213.03-34.4L213.03-34.4 202.83-1.15Q202.63-0.45 201.88-0.08 201.13 0.3 200.23 0.3ZM237.13 0L219.33 0Q218.63 0 218.03-0.38 217.43-0.75 217.43-1.5L217.43-1.5 217.43-35.05Q217.43-35.8 218.03-36.18 218.63-36.55 219.33-36.55L219.33-36.55 237.13-36.55Q237.93-36.55 238.25-35.95 238.58-35.35 238.58-34.7L238.58-34.7Q238.58-33.95 238.2-33.35 237.83-32.75 237.13-32.75L237.13-32.75 221.63-32.75 221.63-20.05 229.43-20.05Q230.13-20.05 230.5-19.5 230.88-18.95 230.88-18.25L230.88-18.25Q230.88-17.65 230.55-17.1 230.23-16.55 229.43-16.55L229.43-16.55 221.63-16.55 221.63-3.8 237.13-3.8Q237.83-3.8 238.2-3.23 238.58-2.65 238.58-1.85L238.58-1.85Q238.58-1.2 238.25-0.6 237.93 0 237.13 0L237.13 0ZM262.52 0.1L262.52 0.1Q261.93 0.1 261.45-0.4 260.97-0.9 260.63-1.55L260.63-1.55 253.13-16.2 247.32-16.2 247.32-1.5Q247.32-0.75 246.67-0.38 246.02 0 245.22 0L245.22 0Q244.47 0 243.8-0.38 243.13-0.75 243.13-1.5L243.13-1.5 243.13-35.1Q243.13-35.7 243.55-36.1 243.97-36.5 244.63-36.55L244.63-36.55 253.77-36.55Q256.82-36.55 259.35-35.63 261.88-34.7 263.38-32.52 264.88-30.35 264.88-26.55L264.88-26.55Q264.88-23.5 263.9-21.5 262.93-19.5 261.22-18.38 259.52-17.25 257.43-16.8L257.43-16.8 264.82-2.75Q264.93-2.55 264.97-2.38 265.02-2.2 265.02-2.05L265.02-2.05Q265.02-1.5 264.65-1 264.27-0.5 263.7-0.2 263.13 0.1 262.52 0.1ZM247.32-32.75L247.32-19.7 253.77-19.7Q256.88-19.7 258.77-21.2 260.68-22.7 260.68-26.25L260.68-26.25Q260.68-29.8 258.77-31.28 256.88-32.75 253.77-32.75L253.77-32.75 247.32-32.75ZM278.77 0.4L278.77 0.4Q275.57 0.4 273.17-0.58 270.77-1.55 269.47-2.88 268.17-4.2 268.17-5.25L268.17-5.25Q268.17-5.75 268.45-6.28 268.72-6.8 269.15-7.18 269.57-7.55 270.02-7.55L270.02-7.55Q270.62-7.55 271.2-6.95 271.77-6.35 272.65-5.53 273.52-4.7 274.92-4.1 276.32-3.5 278.57-3.5L278.57-3.5Q280.67-3.5 282.22-4.17 283.77-4.85 284.65-6.23 285.52-7.6 285.52-9.7L285.52-9.7Q285.52-11.85 284.62-13.2 283.72-14.55 282.25-15.45 280.77-16.35 279.05-17.05 277.32-17.75 275.55-18.48 273.77-19.2 272.32-20.28 270.87-21.35 269.97-23.05 269.07-24.75 269.07-27.35L269.07-27.35Q269.07-30.1 270.07-31.9 271.07-33.7 272.72-34.75 274.37-35.8 276.3-36.23 278.22-36.65 280.07-36.65L280.07-36.65Q281.42-36.65 282.92-36.45 284.42-36.25 285.77-35.85 287.12-35.45 287.97-34.83 288.82-34.2 288.82-33.35L288.82-33.35Q288.82-32.95 288.62-32.43 288.42-31.9 288.02-31.48 287.62-31.05 287.02-31.05L287.02-31.05Q286.47-31.05 285.67-31.53 284.87-32 283.55-32.48 282.22-32.95 280.07-32.95L280.07-32.95Q278.27-32.95 276.7-32.45 275.12-31.95 274.2-30.8 273.27-29.65 273.27-27.75L273.27-27.75Q273.27-25.95 274.17-24.8 275.07-23.65 276.52-22.9 277.97-22.15 279.72-21.53 281.47-20.9 283.22-20.08 284.97-19.25 286.45-18.05 287.92-16.85 288.82-14.93 289.72-13 289.72-10.1L289.72-10.1Q289.72-6.5 288.3-4.17 286.87-1.85 284.42-0.73 281.97 0.4 278.77 0.4ZM297.27 0L297.27 0Q296.52 0 295.85-0.38 295.17-0.75 295.17-1.5L295.17-1.5 295.17-35.1Q295.17-35.85 295.85-36.2 296.52-36.55 297.27-36.55L297.27-36.55Q298.07-36.55 298.72-36.2 299.37-35.85 299.37-35.1L299.37-35.1 299.37-1.5Q299.37-0.75 298.72-0.38 298.07 0 297.27 0ZM315.22 0L315.22 0Q314.42 0 313.77-0.38 313.12-0.75 313.12-1.5L313.12-1.5 313.12-32.65 305.02-32.65Q304.37-32.65 303.97-33.25 303.57-33.85 303.57-34.65L303.57-34.65Q303.57-35.35 303.92-35.95 304.27-36.55 305.02-36.55L305.02-36.55 325.42-36.55Q326.17-36.55 326.52-35.95 326.87-35.35 326.87-34.65L326.87-34.65Q326.87-33.9 326.52-33.27 326.17-32.65 325.42-32.65L325.42-32.65 317.32-32.65 317.32-1.5Q317.32-0.75 316.67-0.38 316.02 0 315.22 0ZM340.97 0L340.97 0Q340.22 0 339.54-0.38 338.87-0.75 338.87-1.5L338.87-1.5 338.87-14.15Q338.87-14.45 338.77-14.65L338.77-14.65 328.42-33.95Q328.32-34.2 328.27-34.43 328.22-34.65 328.22-34.8L328.22-34.8Q328.22-35.3 328.62-35.7 329.02-36.1 329.59-36.33 330.17-36.55 330.72-36.55L330.72-36.55Q331.27-36.55 331.59-36.27 331.92-36 332.22-35.45L332.22-35.45 340.97-18.3 349.77-35.45Q350.07-36 350.42-36.27 350.77-36.55 351.27-36.55L351.27-36.55Q351.82-36.55 352.39-36.33 352.97-36.1 353.37-35.7 353.77-35.3 353.77-34.8L353.77-34.8Q353.77-34.65 353.72-34.43 353.67-34.2 353.57-33.95L353.57-33.95 343.22-14.65Q343.07-14.45 343.07-14.15L343.07-14.15 343.07-1.5Q343.07-0.75 342.42-0.38 341.77 0 340.97 0ZM370.16 0L370.16 0Q369.41 0 368.74-0.35 368.06-0.7 368.06-1.45L368.06-1.45 368.06-35.05Q368.06-35.8 368.66-36.18 369.26-36.55 369.96-36.55L369.96-36.55 387.61-36.55Q388.36-36.55 388.71-35.95 389.06-35.35 389.06-34.7L389.06-34.7Q389.06-33.95 388.69-33.35 388.31-32.75 387.61-32.75L387.61-32.75 372.26-32.75 372.26-20.05 380.11-20.05Q380.81-20.05 381.19-19.5 381.56-18.95 381.56-18.25L381.56-18.25Q381.56-17.65 381.21-17.1 380.86-16.55 380.11-16.55L380.11-16.55 372.26-16.55 372.26-1.45Q372.26-0.7 371.61-0.35 370.96 0 370.16 0ZM402.56 0.3L402.56 0.3Q399.51 0.3 397.08-0.78 394.66-1.85 393.23-4.23 391.81-6.6 391.81-10.6L391.81-10.6 391.81-25.65Q391.81-29.65 393.23-32.02 394.66-34.4 397.08-35.48 399.51-36.55 402.56-36.55L402.56-36.55Q405.61-36.55 408.06-35.48 410.51-34.4 411.93-32.02 413.36-29.65 413.36-25.65L413.36-25.65 413.36-10.6Q413.36-6.6 411.93-4.23 410.51-1.85 408.06-0.78 405.61 0.3 402.56 0.3ZM402.56-3.5L402.56-3.5Q405.66-3.5 407.41-5.23 409.16-6.95 409.16-10.6L409.16-10.6 409.16-25.65Q409.16-29.3 407.41-31.03 405.66-32.75 402.56-32.75L402.56-32.75Q399.46-32.75 397.73-31.03 396.01-29.3 396.01-25.65L396.01-25.65 396.01-10.6Q396.01-6.95 397.73-5.23 399.46-3.5 402.56-3.5ZM430.5 0.3L430.5 0.3Q427.45 0.3 425.03-0.78 422.61-1.85 421.18-4.23 419.75-6.6 419.75-10.6L419.75-10.6 419.75-25.65Q419.75-29.65 421.18-32.02 422.61-34.4 425.03-35.48 427.45-36.55 430.5-36.55L430.5-36.55Q433.56-36.55 436-35.48 438.45-34.4 439.88-32.02 441.31-29.65 441.31-25.65L441.31-25.65 441.31-10.6Q441.31-6.6 439.88-4.23 438.45-1.85 436-0.78 433.56 0.3 430.5 0.3ZM430.5-3.5L430.5-3.5Q433.61-3.5 435.36-5.23 437.11-6.95 437.11-10.6L437.11-10.6 437.11-25.65Q437.11-29.3 435.36-31.03 433.61-32.75 430.5-32.75L430.5-32.75Q427.41-32.75 425.68-31.03 423.95-29.3 423.95-25.65L423.95-25.65 423.95-10.6Q423.95-6.95 425.68-5.23 427.41-3.5 430.5-3.5ZM458.8 0L449.95 0Q449.1 0 448.58-0.43 448.05-0.85 448.05-1.45L448.05-1.45 448.05-35.1Q448.05-35.7 448.58-36.13 449.1-36.55 449.95-36.55L449.95-36.55 458.8-36.55Q461.85-36.55 464.3-35.48 466.75-34.4 468.18-32.02 469.6-29.65 469.6-25.65L469.6-25.65 469.6-10.9Q469.6-6.9 468.18-4.53 466.75-2.15 464.3-1.07 461.85 0 458.8 0L458.8 0ZM452.25-32.75L452.25-3.8 458.8-3.8Q461.9-3.8 463.65-5.53 465.4-7.25 465.4-10.9L465.4-10.9 465.4-25.65Q465.4-29.3 463.65-31.03 461.9-32.75 458.8-32.75L458.8-32.75 452.25-32.75Z"
                                                                  opacity="1" transform="matrix(1,0,0,1,0,0)"
                                                                  fill="#ffffff" class="slogan-text-1"
                                                                  data-fill-palette-color="secondary"
                                                                  id="text-1"></path>
                                                        </svg>
                                                    </g>
                                                </svg>
                                            </g>
                                        </svg>
                                    </g>
                                </svg>
                            </g>
                            <g></g>
                        </svg>
                    </g>
                    <defs></defs>
                </svg>
                <rect width="370.6307226858343" height="200" fill="none" stroke="none" visibility="hidden"></rect>
            </g>
        </svg>
    </g>
</svg>
